<svg id="Component_1_1" data-name="Component 1 – 1" xmlns="http://www.w3.org/2000/svg" width="833.707" height="602.006" viewBox="0 0 833.707 602.006">
  <rect id="Rectangle_5" data-name="Rectangle 5" width="7.421" height="293.143" transform="translate(723.94 293.233)" fill="#3f3d56"/>
  <path id="Path_3" data-name="Path 3" d="M1060.288,429.028c.473,102.505-71.645,185.936-71.645,185.936S915.76,532.2,915.287,429.7s71.645-185.936,71.645-185.936S1059.813,326.523,1060.288,429.028Z" transform="translate(-260.436 -98.438)" fill="#fff1f4"/>
  <rect id="Rectangle_6" data-name="Rectangle 6" width="3.817" height="150.77" transform="translate(579.156 431.161)" fill="#3f3d56"/>
  <path id="Path_4" data-name="Path 4" d="M842.513,616.936c.243,52.721-36.849,95.631-36.849,95.631S768.178,670,767.935,617.28s36.849-95.631,36.849-95.631S842.27,564.216,842.513,616.936Z" transform="translate(-224.313 -166.562)"/>
  <path id="Path_62" data-name="Path 62" d="M103.415,0c57.114,0,103.415,7.1,103.415,15.852S160.529,31.7,103.415,31.7,0,24.607,0,15.852,46.3,0,103.415,0Z" transform="translate(554.793 570.302)"/>
  <path id="Path_5" data-name="Path 5" d="M909.078,333.274c-8.761-14.8-26.1-15.494-26.1-15.494s-16.891-2.16-27.726,20.387c-10.1,21.016-24.038,41.307-2.244,46.226l3.937-12.253,2.438,13.165a85.265,85.265,0,0,0,9.325.159c23.34-.754,45.567.22,44.851-8.155C912.611,366.176,917.508,347.518,909.078,333.274Z" transform="translate(-242.341 -116.57)" fill="#2f2e41"/>
  <path id="Path_6" data-name="Path 6" d="M889.234,373.3s11.323,15.852,4.529,28.684,15.852,26.42,15.852,26.42l16.607-36.233s-19.626-12.832-14.342-24.91Z" transform="translate(-254.05 -128.713)" fill="#fbbebe"/>
  <circle id="Ellipse_2" data-name="Ellipse 2" cx="19.626" cy="19.626" r="19.626" transform="translate(623.107 212.125)" fill="#fbbebe"/>
  <path id="Path_7" data-name="Path 7" d="M809.255,374.589l16.4-21.161s5.775-22.181,14.139-21.057-3.3,26.6-3.3,26.6l-16.3,23.423Z" transform="translate(-234.443 -120.15)" fill="#fbbebe"/>
  <path id="Path_8" data-name="Path 8" d="M871.469,709.28l5.284,27.93,11.323,3.019-3.019-33.214Z" transform="translate(-213.639 -173.323)" fill="#fbbebe"/>
  <path id="Path_9" data-name="Path 9" d="M1022.47,668.054l20.381,27.93,8.3,3.774,6.794-11.323-20.381-26.42Z" transform="translate(-250.656 -162.292)" fill="#fbbebe"/>
  <path id="Path_10" data-name="Path 10" d="M900.359,422.452l-12.592-16.576s-24.4,4.5-26.661,6.763,6.039,43.781,6.039,43.781,1.51,11.323,8.3,17.362l6.794,4.529L938.1,466.988l2.1-24.854A65.227,65.227,0,0,0,923,392.258h0l-9.719,1.329Z" transform="translate(-247.059 -134.842)" fill="#0d0e1a"/>
  <path id="Path_11" data-name="Path 11" d="M847.337,410.471l-3.774-1.51-17.362-1.51s-6.039-1.51-4.529-4.529,3.019-3.774,0-4.529-3.774-1.51-3.019-3.774,5.284-6.794,5.284-6.794L811.1,377.258s-.695.491-1.817,1.4c-6.371,5.158-26.531,23.77-11.77,42.381,17.362,21.891,37.743,34.723,54.349,30.194Z" transform="translate(-230.269 -131.165)"/>
  <path id="Path_12" data-name="Path 12" d="M885.613,498.807v10.568s-6.794,12.832-4.529,24.91S884.1,552.4,884.1,552.4a103.06,103.06,0,0,0,5.284,30.194c5.284,15.1-12.078,113.983,9.813,115.492s33.968,3.019,40.762-4.529S928.64,556.175,928.64,556.175s61.9,129.08,74.73,123.8,45.291-17.362,41.517-24.155S946,498.052,946,498.052l-3.019-6.794Z" transform="translate(-251.939 -159.112)"/>
  <path id="Path_13" data-name="Path 13" d="M929.08,791.238S917,790.483,917,794.257s-6.039,16.607-6.039,16.607-4.529,15.1,7.549,13.587,19.626-15.1,19.626-15.1l-3.019-14.342Z" transform="translate(-259.173 -232.636)" fill="#2f2e41"/>
  <path id="Path_14" data-name="Path 14" d="M1099.031,753.794s-10.568-6.794-9.813-2.265,1.51,16.607,6.794,17.362,21.136,5.284,21.891,6.794,18.871,7.549,18.871-2.265-11.323-17.362-11.323-17.362l-12.833-9.813s-8.3-.755-9.813,4.529S1099.031,753.794,1099.031,753.794Z" transform="translate(-303.066 -221.612)" fill="#2f2e41"/>
  <circle id="Ellipse_3" data-name="Ellipse 3" cx="12.533" cy="12.533" r="12.533" transform="translate(630.229 188.751)" fill="#2f2e41"/>
  <path id="Path_15" data-name="Path 15" d="M880.065,309.458a12.534,12.534,0,0,1,11.213-12.463,12.676,12.676,0,0,0-1.318-.071,12.533,12.533,0,1,0,0,25.067,12.667,12.667,0,0,0,1.319-.071A12.534,12.534,0,0,1,880.065,309.458Z" transform="translate(-251.155 -111.471)" fill="#2f2e41"/>
  <path id="Path_16" data-name="Path 16" d="M863.3,282.278l-17.125-8.971-23.65,3.67-4.893,21.61,12.18-.469,3.4-7.939v7.808l5.62-.216,3.262-12.64,2.039,13.455,19.979-.408Z" transform="translate(-200.442 -67.001)" fill="#2f2e41"/>
  <path id="Path_17" data-name="Path 17" d="M909.042,499.163l-26.41.714s-22.535,4.385-21.271-4.711,23.249-5.914,23.249-5.914l24.065-3.671Z" transform="translate(-247.204 -157.72)" fill="#fbbebe"/>
  <path id="Path_18" data-name="Path 18" d="M943.122,390.541a5.636,5.636,0,0,1,6.217,3.871c5.17,16.293,21.1,70.815,5.273,78.3-18.64,8.81-32.243,8.423-32.243,8.423L915.088,463.2l6.628-6.22,7.076-45.5,3.391-19.287Z" transform="translate(-260.388 -134.405)"/>
  <path id="Path_19" data-name="Path 19" d="M888.408,379.515l-3.019,30.194-26.42,11.323,29.439-6.794Z" transform="translate(-210.574 -93.037)" opacity="0.4"/>
  <path id="Path_20" data-name="Path 20" d="M753.335,298.7h0a35.357,35.357,0,0,1,20.647,15l2.469,3.824.124.158,43.317,12.675a3.157,3.157,0,0,1,2.159,3.861l-3.363,12.33a3.157,3.157,0,0,1-3.9,2.21l-43.328-12.111h0l-4.352,1.645a38.886,38.886,0,0,1-25,.85h0Z" transform="translate(-217.983 -111.907)" fill="#3f3d56"/>
  <ellipse id="Ellipse_4" data-name="Ellipse 4" cx="2.645" cy="4.96" rx="2.645" ry="4.96" transform="translate(570.705 222.307) rotate(-73.69)" fill="#575a89"/>
  <circle id="Ellipse_5" data-name="Ellipse 5" cx="1.819" cy="1.819" r="1.819" transform="translate(576.939 220.214)" fill="#3f3d56"/>
  <ellipse id="Ellipse_6" data-name="Ellipse 6" cx="21.204" cy="9.589" rx="21.204" ry="9.589" transform="matrix(0.308, -0.951, 0.951, 0.308, 514.191, 224.409)" fill="#21437d"/>
  <path id="Path_21" data-name="Path 21" d="M755.171,321.682c3.481-10.734,2.534-20.737-2.046-22.914a4.443,4.443,0,0,1,.812.18c5.038,1.633,6.193,11.988,2.581,23.128s-10.624,18.846-15.662,17.213a4.43,4.43,0,0,1-.535-.214C745.277,339.705,751.75,332.235,755.171,321.682Z" transform="translate(-217.544 -111.923)" fill="#21437d" opacity="0.4"/>
  <path id="Path_22" data-name="Path 22" d="M583.686,238.08l-98.31-76.26A650.631,650.631,0,0,1,435.394,118.5C407.37,91.79,369.327,70.433,325.033,59.063,217.421,31.437,132.17,80.421,93.4,152.346,34.143,262.256-11.265,440.608,251.457,345.671c57.457-20.763,115.617-22.97,159.716-33.906l159.778-33.28Z" transform="translate(-47.765 -51.242)" fill="#8e82bf"/>
  <circle id="Ellipse_7" data-name="Ellipse 7" cx="5.284" cy="5.284" r="5.284" transform="translate(235.491 47.944)" fill="#f2f2f2"/>
  <path id="Path_23" data-name="Path 23" d="M453.968,86.248h-1.375V84.873h-.269v1.375h-1.375v.269h1.375v1.375h.269V86.517h1.375Z" transform="translate(-110.549 -20.806)" fill="#f2f2f2"/>
  <path id="Path_24" data-name="Path 24" d="M636.968,238.248h-1.375v-1.375h-.269v1.375h-1.375v.269h1.375v1.375h.269v-1.375h1.375Z" transform="translate(-155.411 -58.069)" fill="#f2f2f2"/>
  <path id="Path_25" data-name="Path 25" d="M623.968,285.248h-1.375v-1.375h-.269v1.375h-1.375v.269h1.375v1.375h.269v-1.375h1.375Z" transform="translate(-152.224 -69.591)" fill="#f2f2f2"/>
  <path id="Path_26" data-name="Path 26" d="M64.968,325.248H63.593v-1.375h-.269v1.375H61.949v.269h1.375v1.375h.269v-1.375h1.375Z" transform="translate(-15.186 -79.397)" fill="#f2f2f2"/>
  <path id="Path_27" data-name="Path 27" d="M144.968,107.248h-1.375v-1.375h-.269v1.375h-1.375v.269h1.375v1.375h.269v-1.375h1.375Z" transform="translate(-34.798 -25.955)" fill="#f2f2f2"/>
  <path id="Path_28" data-name="Path 28" d="M455.968,293.248h-1.375v-1.375h-.269v1.375h-1.375v.269h1.375v1.375h.269v-1.375h1.375Z" transform="translate(-111.039 -71.552)" fill="#f2f2f2"/>
  <path id="Path_29" data-name="Path 29" d="M264.968,43.248h-1.375V41.873h-.269v1.375h-1.375v.269h1.375v1.375h.269V43.517h1.375Z" transform="translate(-64.216 -10.265)" fill="#f2f2f2"/>
  <path id="Path_30" data-name="Path 30" d="M313.859,238.915l-1.714.264c.536,3.427.959,6.93,1.268,10.394l1.729-.151C314.832,245.912,314.4,242.38,313.859,238.915Z" transform="translate(-112.578 -97.25)" fill="#e6e6e6"/>
  <path id="Path_31" data-name="Path 31" d="M307.666,211.575l-1.661.506c1,3.321,1.9,6.726,2.665,10.115l1.7-.385C309.591,218.384,308.677,214.942,307.666,211.575Z" transform="translate(-111.072 -90.548)" fill="#e6e6e6"/>
  <path id="Path_32" data-name="Path 32" d="M297.783,185.355l-1.578.725c1.449,3.163,2.808,6.409,4.038,9.655l1.623-.611C300.621,191.839,299.255,188.548,297.783,185.355Z" transform="translate(-108.67 -84.12)" fill="#e6e6e6"/>
  <path id="Path_33" data-name="Path 33" d="M284.419,160.775l-1.464.928c1.864,2.929,3.653,5.963,5.314,9.005l1.525-.83C288.118,166.8,286.307,163.734,284.419,160.775Z" transform="translate(-105.422 -78.094)" fill="#e6e6e6"/>
  <path id="Path_34" data-name="Path 34" d="M267.806,138.245l-1.321,1.125c2.249,2.642,4.439,5.4,6.507,8.2l1.389-1.034C272.3,143.71,270.086,140.917,267.806,138.245Z" transform="translate(-101.384 -72.571)" fill="#e6e6e6"/>
  <path id="Path_35" data-name="Path 35" d="M248.28,118.185l-1.155,1.291c2.6,2.317,5.141,4.756,7.564,7.239l1.245-1.215C253.481,122.986,250.907,120.525,248.28,118.185Z" transform="translate(-96.638 -67.653)" fill="#e6e6e6"/>
  <path id="Path_36" data-name="Path 36" d="M226.219,100.965l-.974,1.434c2.884,1.94,5.737,4.008,8.477,6.144l1.072-1.366C232.016,105.019,229.132,102.928,226.219,100.965Z" transform="translate(-91.274 -63.432)" fill="#e6e6e6"/>
  <path id="Path_37" data-name="Path 37" d="M206.4,89.006v1.963c1.8.944,3.593,1.932,5.344,2.944l.868-1.5Q209.56,90.643,206.4,89.006Z" transform="translate(-86.656 -60.5)" fill="#e6e6e6"/>
  <path id="Path_38" data-name="Path 38" d="M314.57,267.211l1.735-.032c.032,1.752.034,3.513.007,5.236l-1.735-.027C314.6,270.685,314.6,268.943,314.57,267.211Z" transform="translate(-113.172 -104.179)" fill="#e6e6e6"/>
  <path id="Path_39" data-name="Path 39" d="M178.858,435.915l-1.714.264c.536,3.427.959,6.93,1.268,10.394l1.729-.151C179.832,442.912,179.4,439.38,178.858,435.915Z" transform="translate(-79.483 -145.544)" fill="#e6e6e6"/>
  <path id="Path_40" data-name="Path 40" d="M172.666,408.575l-1.661.506c1,3.321,1.9,6.726,2.665,10.115l1.7-.385C174.591,415.384,173.677,411.942,172.666,408.575Z" transform="translate(-77.977 -138.842)" fill="#e6e6e6"/>
  <path id="Path_41" data-name="Path 41" d="M162.783,382.355l-1.578.725c1.449,3.163,2.808,6.409,4.038,9.655l1.623-.611C165.621,388.839,164.255,385.548,162.783,382.355Z" transform="translate(-75.575 -132.414)" fill="#e6e6e6"/>
  <path id="Path_42" data-name="Path 42" d="M149.419,357.775l-1.464.928c1.865,2.929,3.653,5.963,5.314,9.005l1.525-.83C153.118,363.8,151.307,360.734,149.419,357.775Z" transform="translate(-72.327 -126.388)" fill="#e6e6e6"/>
  <path id="Path_43" data-name="Path 43" d="M132.806,335.245l-1.321,1.125c2.249,2.642,4.439,5.4,6.507,8.2l1.389-1.034C137.3,340.71,135.086,337.917,132.806,335.245Z" transform="translate(-68.289 -120.865)" fill="#e6e6e6"/>
  <path id="Path_44" data-name="Path 44" d="M113.28,315.185l-1.155,1.291c2.6,2.317,5.141,4.756,7.564,7.239l1.246-1.215C118.481,319.986,115.907,317.525,113.28,315.185Z" transform="translate(-63.543 -115.948)" fill="#e6e6e6"/>
  <path id="Path_45" data-name="Path 45" d="M91.219,297.965l-.974,1.434c2.883,1.94,5.737,4.008,8.477,6.144l1.072-1.366C97.016,302.019,94.132,299.928,91.219,297.965Z" transform="translate(-58.179 -111.726)" fill="#e6e6e6"/>
  <path id="Path_46" data-name="Path 46" d="M71.4,286.005v1.963c1.8.944,3.593,1.932,5.344,2.944l.868-1.5Q74.56,287.643,71.4,286.005Z" transform="translate(-53.561 -108.794)" fill="#e6e6e6"/>
  <path id="Path_47" data-name="Path 47" d="M179.57,464.211l1.735-.032c.032,1.752.034,3.513.007,5.236l-1.735-.027C179.6,467.685,179.6,465.943,179.57,464.211Z" transform="translate(-80.077 -152.473)" fill="#e6e6e6"/>
  <path id="Path_48" data-name="Path 48" d="M640.858,336.915l-1.714.264c.536,3.427.959,6.93,1.268,10.394l1.729-.151C641.832,343.912,641.4,340.38,640.858,336.915Z" transform="translate(-192.741 -121.275)" fill="#e6e6e6"/>
  <path id="Path_49" data-name="Path 49" d="M634.666,309.575l-1.661.506c1,3.321,1.9,6.726,2.665,10.115l1.7-.385C636.591,316.384,635.677,312.942,634.666,309.575Z" transform="translate(-191.236 -114.572)" fill="#e6e6e6"/>
  <path id="Path_50" data-name="Path 50" d="M624.783,283.355l-1.578.725c1.449,3.163,2.808,6.409,4.038,9.655l1.623-.611C627.621,289.839,626.255,286.548,624.783,283.355Z" transform="translate(-188.833 -108.144)" fill="#e6e6e6"/>
  <path id="Path_51" data-name="Path 51" d="M611.419,258.775l-1.464.928c1.864,2.929,3.654,5.963,5.314,9.005l1.525-.83C615.118,264.8,613.307,261.734,611.419,258.775Z" transform="translate(-185.585 -102.119)" fill="#e6e6e6"/>
  <path id="Path_52" data-name="Path 52" d="M594.806,236.245l-1.321,1.125c2.249,2.642,4.438,5.4,6.507,8.2l1.389-1.034C599.3,241.71,597.086,238.917,594.806,236.245Z" transform="translate(-181.548 -96.596)" fill="#e6e6e6"/>
  <path id="Path_53" data-name="Path 53" d="M575.28,216.185l-1.155,1.291c2.6,2.317,5.141,4.756,7.564,7.239l1.246-1.215C580.481,220.986,577.907,218.525,575.28,216.185Z" transform="translate(-176.802 -91.678)" fill="#e6e6e6"/>
  <path id="Path_54" data-name="Path 54" d="M553.219,198.965l-.974,1.434c2.884,1.94,5.737,4.008,8.477,6.145l1.072-1.366C559.016,203.019,556.133,200.928,553.219,198.965Z" transform="translate(-171.438 -87.456)" fill="#e6e6e6"/>
  <path id="Path_55" data-name="Path 55" d="M533.405,187.005v1.963c1.8.944,3.593,1.932,5.344,2.944l.868-1.5Q536.56,188.643,533.405,187.005Z" transform="translate(-166.819 -84.524)" fill="#e6e6e6"/>
  <path id="Path_56" data-name="Path 56" d="M641.57,365.211l1.735-.032c.032,1.752.034,3.513.007,5.236l-1.735-.027C641.6,368.685,641.6,366.943,641.57,365.211Z" transform="translate(-193.336 -128.204)" fill="#e6e6e6"/>
  <path id="Path_57" data-name="Path 57" d="M148.383,199.479H147.1V198.2h-.25v1.28h-1.28v.249h1.28v1.28h.25v-1.28h1.279Z" transform="translate(-35.687 -48.588)" fill="#f2f2f2"/>
  <path id="Path_58" data-name="Path 58" d="M128.842,301.836h-1.279v-1.28h-.25v1.28h-1.28v.25h1.28v1.279h.25v-1.279h1.279Z" transform="translate(-30.896 -73.681)" fill="#f2f2f2"/>
  <path id="Path_59" data-name="Path 59" d="M71.5,391.543h-1.28v-1.279h-.25v1.279H68.695v.25h1.279v1.28h.25v-1.28H71.5Z" transform="translate(-16.84 -95.673)" fill="#f2f2f2"/>
  <path id="Path_60" data-name="Path 60" d="M274.536,282.513a92.7,92.7,0,1,1,43.013,34.536,29.987,29.987,0,1,1-43.013-34.536Z" transform="translate(-99.471 -72.526)" fill="#f1cdd5"/>
  <path id="Path_61" data-name="Path 61" d="M369.774,190.679c21.252,0,35.874,11.788,35.874,28.733,0,11.221-5.441,18.985-15.925,25.163-9.861,5.724-13.2,9.918-13.2,17.172h0a4.477,4.477,0,0,1-4.477,4.477H361.176A4.477,4.477,0,0,1,356.7,261.9l-.019-.553c-.963-11.675,3.117-18.929,13.375-24.936,9.578-5.724,13.6-9.351,13.6-16.378s-6.8-12.185-15.245-12.185c-6.418,0-11.5,3.124-13.827,8.225a10,10,0,0,1-9.143,5.717h0a9.834,9.834,0,0,1-8.782-14.335C342.108,197.165,353.6,190.679,369.774,190.679Zm-14.905,97.137A11.87,11.87,0,0,1,367,276.141c6.744,0,12.185,5.1,12.185,11.674S373.741,299.49,367,299.49A11.8,11.8,0,0,1,354.869,287.816Z" transform="translate(-118.311 -85.425)" fill="#8e82bf"/>
</svg>
